P2
10 20
255
0 255 255 255 255 255 255 255 255 255 255 0 255 255 255 255 255 255 255 
255 255 255 0 255 255 255 255 255 255 255 255 255 255 0 255 255 255 255 
255 255 255 255 255 255 0 255 255 255 255 255 255 255 255 255 255 0 255 
255 255 255 255 255 255 255 255 255 0 255 255 255 255 255 255 255 255 255 
255 0 255 255 255 255 255 255 255 255 255 255 0 255 255 255 255 255 255 
255 255 255 255 0 255 255 255 255 255 255 255 255 255 0 255 255 255 255 
255 255 255 255 0 255 255 255 255 255 255 255 255 0 255 255 255 255 255 
255 255 255 0 255 255 255 255 255 255 255 255 0 255 255 255 255 255 255 
255 255 0 255 255 255 255 255 255 255 255 0 255 255 255 255 255 255 255 
255 0 255 255 255 255 255 255 255 255 0 255 255 255 255 255 255 255 255 
0 255 255 255 255 255 255 255 255 255 